<?xml version="1.0" encoding="UTF-8" standalone="no"?>
<!DOCTYPE svg PUBLIC "-//W3C//DTD SVG 1.1//EN"
 "http://www.w3.org/Graphics/SVG/1.1/DTD/svg11.dtd">
<!-- Generated by graphviz version 2.38.0 (20140413.2041)
 -->
<!-- Title: %3 Pages: 1 -->
<svg width="758pt" height="476pt"
 viewBox="0.00 0.00 757.50 476.00" xmlns="http://www.w3.org/2000/svg" xmlns:xlink="http://www.w3.org/1999/xlink">
<g id="graph0" class="graph" transform="scale(1 1) rotate(0) translate(4 472)">
<title>%3</title>
<polygon fill="white" stroke="none" points="-4,4 -4,-472 753.5,-472 753.5,4 -4,4"/>
<!-- [root] aws_instance.Myinstance -->
<g id="node1" class="node"><title>[root] aws_instance.Myinstance</title>
<polygon fill="none" stroke="black" points="566.5,-252 408.5,-252 408.5,-216 566.5,-216 566.5,-252"/>
<text text-anchor="middle" x="487.5" y="-230.3" font-family="Times New Roman,serif" font-size="14.00">aws_instance.Myinstance</text>
</g>
<!-- [root] aws_security_group.Webserver_SG -->
<g id="node2" class="node"><title>[root] aws_security_group.Webserver_SG</title>
<polygon fill="none" stroke="black" points="221,-180 0,-180 0,-144 221,-144 221,-180"/>
<text text-anchor="middle" x="110.5" y="-158.3" font-family="Times New Roman,serif" font-size="14.00">aws_security_group.Webserver_SG</text>
</g>
<!-- [root] aws_instance.Myinstance&#45;&gt;[root] aws_security_group.Webserver_SG -->
<g id="edge1" class="edge"><title>[root] aws_instance.Myinstance&#45;&gt;[root] aws_security_group.Webserver_SG</title>
<path fill="none" stroke="black" d="M408.468,-218.326C351.507,-207.749 274.137,-193.384 212.513,-181.941"/>
<polygon fill="black" stroke="black" points="212.844,-178.443 202.373,-180.059 211.566,-185.326 212.844,-178.443"/>
</g>
<!-- [root] data.aws_availability_zones.azs -->
<g id="node3" class="node"><title>[root] data.aws_availability_zones.azs</title>
<polygon fill="none" stroke="black" points="431.5,-180 239.5,-180 239.5,-144 431.5,-144 431.5,-180"/>
<text text-anchor="middle" x="335.5" y="-158.3" font-family="Times New Roman,serif" font-size="14.00">data.aws_availability_zones.azs</text>
</g>
<!-- [root] aws_instance.Myinstance&#45;&gt;[root] data.aws_availability_zones.azs -->
<g id="edge2" class="edge"><title>[root] aws_instance.Myinstance&#45;&gt;[root] data.aws_availability_zones.azs</title>
<path fill="none" stroke="black" d="M450.317,-215.876C429.63,-206.349 403.698,-194.407 381.715,-184.283"/>
<polygon fill="black" stroke="black" points="383.11,-181.072 372.563,-180.068 380.182,-187.43 383.11,-181.072"/>
</g>
<!-- [root] var.ami_id -->
<g id="node7" class="node"><title>[root] var.ami_id</title>
<polygon fill="none" stroke="black" points="519,-180 450,-180 450,-144 525,-144 525,-174 519,-180"/>
<polyline fill="none" stroke="black" points="519,-180 519,-174 "/>
<polyline fill="none" stroke="black" points="525,-174 519,-174 "/>
<text text-anchor="middle" x="487.5" y="-158.3" font-family="Times New Roman,serif" font-size="14.00">var.ami_id</text>
</g>
<!-- [root] aws_instance.Myinstance&#45;&gt;[root] var.ami_id -->
<g id="edge3" class="edge"><title>[root] aws_instance.Myinstance&#45;&gt;[root] var.ami_id</title>
<path fill="none" stroke="black" d="M487.5,-215.697C487.5,-207.983 487.5,-198.712 487.5,-190.112"/>
<polygon fill="black" stroke="black" points="491,-190.104 487.5,-180.104 484,-190.104 491,-190.104"/>
</g>
<!-- [root] var.instance_kind -->
<g id="node9" class="node"><title>[root] var.instance_kind</title>
<polygon fill="none" stroke="black" points="651.5,-180 543.5,-180 543.5,-144 657.5,-144 657.5,-174 651.5,-180"/>
<polyline fill="none" stroke="black" points="651.5,-180 651.5,-174 "/>
<polyline fill="none" stroke="black" points="657.5,-174 651.5,-174 "/>
<text text-anchor="middle" x="600.5" y="-158.3" font-family="Times New Roman,serif" font-size="14.00">var.instance_kind</text>
</g>
<!-- [root] aws_instance.Myinstance&#45;&gt;[root] var.instance_kind -->
<g id="edge4" class="edge"><title>[root] aws_instance.Myinstance&#45;&gt;[root] var.instance_kind</title>
<path fill="none" stroke="black" d="M515.143,-215.876C529.918,-206.724 548.291,-195.342 564.203,-185.485"/>
<polygon fill="black" stroke="black" points="566.093,-188.431 572.751,-180.19 562.407,-182.481 566.093,-188.431"/>
</g>
<!-- [root] var.mykey -->
<g id="node10" class="node"><title>[root] var.mykey</title>
<polygon fill="none" stroke="black" points="743.5,-180 675.5,-180 675.5,-144 749.5,-144 749.5,-174 743.5,-180"/>
<polyline fill="none" stroke="black" points="743.5,-180 743.5,-174 "/>
<polyline fill="none" stroke="black" points="749.5,-174 743.5,-174 "/>
<text text-anchor="middle" x="712.5" y="-158.3" font-family="Times New Roman,serif" font-size="14.00">var.mykey</text>
</g>
<!-- [root] aws_instance.Myinstance&#45;&gt;[root] var.mykey -->
<g id="edge5" class="edge"><title>[root] aws_instance.Myinstance&#45;&gt;[root] var.mykey</title>
<path fill="none" stroke="black" d="M548.706,-215.963C581.058,-206.705 621.601,-194.708 665.663,-180.182"/>
<polygon fill="black" stroke="black" points="667.029,-183.416 675.417,-176.944 664.824,-176.773 667.029,-183.416"/>
</g>
<!-- [root] provider.aws -->
<g id="node6" class="node"><title>[root] provider.aws</title>
<polygon fill="none" stroke="black" points="222.5,-108 140.89,-90 222.5,-72 304.11,-90 222.5,-108"/>
<text text-anchor="middle" x="222.5" y="-86.3" font-family="Times New Roman,serif" font-size="14.00">provider.aws</text>
</g>
<!-- [root] aws_security_group.Webserver_SG&#45;&gt;[root] provider.aws -->
<g id="edge6" class="edge"><title>[root] aws_security_group.Webserver_SG&#45;&gt;[root] provider.aws</title>
<path fill="none" stroke="black" d="M137.898,-143.876C154.773,-133.329 176.385,-119.822 193.542,-109.099"/>
<polygon fill="black" stroke="black" points="195.433,-112.044 202.058,-103.776 191.723,-106.108 195.433,-112.044"/>
</g>
<!-- [root] data.aws_availability_zones.azs&#45;&gt;[root] provider.aws -->
<g id="edge7" class="edge"><title>[root] data.aws_availability_zones.azs&#45;&gt;[root] provider.aws</title>
<path fill="none" stroke="black" d="M307.857,-143.876C290.72,-133.26 268.741,-119.645 251.378,-108.889"/>
<polygon fill="black" stroke="black" points="253.114,-105.847 242.769,-103.556 249.427,-111.798 253.114,-105.847"/>
</g>
<!-- [root] output.My_private_ip -->
<g id="node4" class="node"><title>[root] output.My_private_ip</title>
<polygon fill="none" stroke="black" points="395.5,-324 263.5,-324 263.5,-288 401.5,-288 401.5,-318 395.5,-324"/>
<polyline fill="none" stroke="black" points="395.5,-324 395.5,-318 "/>
<polyline fill="none" stroke="black" points="401.5,-318 395.5,-318 "/>
<text text-anchor="middle" x="332.5" y="-302.3" font-family="Times New Roman,serif" font-size="14.00">output.My_private_ip</text>
</g>
<!-- [root] output.My_private_ip&#45;&gt;[root] aws_instance.Myinstance -->
<g id="edge10" class="edge"><title>[root] output.My_private_ip&#45;&gt;[root] aws_instance.Myinstance</title>
<path fill="none" stroke="black" d="M370.417,-287.876C391.513,-278.349 417.956,-266.407 440.373,-256.283"/>
<polygon fill="black" stroke="black" points="442.033,-259.374 449.706,-252.068 439.152,-252.994 442.033,-259.374"/>
</g>
<!-- [root] output.My_public_ip -->
<g id="node5" class="node"><title>[root] output.My_public_ip</title>
<polygon fill="none" stroke="black" points="549,-324 420,-324 420,-288 555,-288 555,-318 549,-324"/>
<polyline fill="none" stroke="black" points="549,-324 549,-318 "/>
<polyline fill="none" stroke="black" points="555,-318 549,-318 "/>
<text text-anchor="middle" x="487.5" y="-302.3" font-family="Times New Roman,serif" font-size="14.00">output.My_public_ip</text>
</g>
<!-- [root] output.My_public_ip&#45;&gt;[root] aws_instance.Myinstance -->
<g id="edge11" class="edge"><title>[root] output.My_public_ip&#45;&gt;[root] aws_instance.Myinstance</title>
<path fill="none" stroke="black" d="M487.5,-287.697C487.5,-279.983 487.5,-270.712 487.5,-262.112"/>
<polygon fill="black" stroke="black" points="491,-262.104 487.5,-252.104 484,-262.104 491,-262.104"/>
</g>
<!-- [root] var.aws_region -->
<g id="node8" class="node"><title>[root] var.aws_region</title>
<polygon fill="none" stroke="black" points="267,-36 172,-36 172,-0 273,-0 273,-30 267,-36"/>
<polyline fill="none" stroke="black" points="267,-36 267,-30 "/>
<polyline fill="none" stroke="black" points="273,-30 267,-30 "/>
<text text-anchor="middle" x="222.5" y="-14.3" font-family="Times New Roman,serif" font-size="14.00">var.aws_region</text>
</g>
<!-- [root] provider.aws&#45;&gt;[root] var.aws_region -->
<g id="edge13" class="edge"><title>[root] provider.aws&#45;&gt;[root] var.aws_region</title>
<path fill="none" stroke="black" d="M222.5,-71.6966C222.5,-63.9827 222.5,-54.7125 222.5,-46.1124"/>
<polygon fill="black" stroke="black" points="226,-46.1043 222.5,-36.1043 219,-46.1044 226,-46.1043"/>
</g>
<!-- [root] meta.count&#45;boundary (EachMode fixup) -->
<g id="node11" class="node"><title>[root] meta.count&#45;boundary (EachMode fixup)</title>
<ellipse fill="none" stroke="black" cx="332.5" cy="-378" rx="180.868" ry="18"/>
<text text-anchor="middle" x="332.5" y="-374.3" font-family="Times New Roman,serif" font-size="14.00">[root] meta.count&#45;boundary (EachMode fixup)</text>
</g>
<!-- [root] meta.count&#45;boundary (EachMode fixup)&#45;&gt;[root] output.My_private_ip -->
<g id="edge8" class="edge"><title>[root] meta.count&#45;boundary (EachMode fixup)&#45;&gt;[root] output.My_private_ip</title>
<path fill="none" stroke="black" d="M332.5,-359.697C332.5,-351.983 332.5,-342.712 332.5,-334.112"/>
<polygon fill="black" stroke="black" points="336,-334.104 332.5,-324.104 329,-334.104 336,-334.104"/>
</g>
<!-- [root] meta.count&#45;boundary (EachMode fixup)&#45;&gt;[root] output.My_public_ip -->
<g id="edge9" class="edge"><title>[root] meta.count&#45;boundary (EachMode fixup)&#45;&gt;[root] output.My_public_ip</title>
<path fill="none" stroke="black" d="M369.626,-360.233C390.88,-350.635 417.753,-338.499 440.472,-328.239"/>
<polygon fill="black" stroke="black" points="441.927,-331.422 449.6,-324.116 439.045,-325.042 441.927,-331.422"/>
</g>
<!-- [root] provider.aws (close) -->
<g id="node12" class="node"><title>[root] provider.aws (close)</title>
<ellipse fill="none" stroke="black" cx="639.5" cy="-378" rx="108.581" ry="18"/>
<text text-anchor="middle" x="639.5" y="-374.3" font-family="Times New Roman,serif" font-size="14.00">[root] provider.aws (close)</text>
</g>
<!-- [root] provider.aws (close)&#45;&gt;[root] aws_instance.Myinstance -->
<g id="edge12" class="edge"><title>[root] provider.aws (close)&#45;&gt;[root] aws_instance.Myinstance</title>
<path fill="none" stroke="black" d="M626.933,-359.794C612.729,-340.982 588.337,-310.519 563.5,-288 551.494,-277.114 537.166,-266.588 524.204,-257.824"/>
<polygon fill="black" stroke="black" points="525.764,-254.659 515.494,-252.055 521.899,-260.495 525.764,-254.659"/>
</g>
<!-- [root] root -->
<g id="node13" class="node"><title>[root] root</title>
<ellipse fill="none" stroke="black" cx="485.5" cy="-450" rx="49.2915" ry="18"/>
<text text-anchor="middle" x="485.5" y="-446.3" font-family="Times New Roman,serif" font-size="14.00">[root] root</text>
</g>
<!-- [root] root&#45;&gt;[root] meta.count&#45;boundary (EachMode fixup) -->
<g id="edge14" class="edge"><title>[root] root&#45;&gt;[root] meta.count&#45;boundary (EachMode fixup)</title>
<path fill="none" stroke="black" d="M456,-435.503C433.978,-425.428 403.473,-411.471 378.291,-399.95"/>
<polygon fill="black" stroke="black" points="379.478,-396.644 368.929,-395.667 376.566,-403.01 379.478,-396.644"/>
</g>
<!-- [root] root&#45;&gt;[root] provider.aws (close) -->
<g id="edge15" class="edge"><title>[root] root&#45;&gt;[root] provider.aws (close)</title>
<path fill="none" stroke="black" d="M515.193,-435.503C537.845,-425.207 569.416,-410.856 595.072,-399.194"/>
<polygon fill="black" stroke="black" points="596.574,-402.356 604.23,-395.032 593.678,-395.984 596.574,-402.356"/>
</g>
</g>
</svg>
